<?xml version="1.0" encoding="UTF-8"?>
<svg id="Layer_2" xmlns="http://www.w3.org/2000/svg" version="1.1" viewBox="0 0 1117.09 250">
  <!-- Generator: Adobe Illustrator 30.3.0, SVG Export Plug-In . SVG Version: 2.1.3 Build 182)  -->
  <defs>
    <style>
      .st0 {
        fill: #9a84d1;
      }
    </style>
  </defs>
  <path class="st0" d="M130.09,59.65c-1.35.09-1.97.2-3.17.31-13.23,1.19-85.56,8.71-84.58,27.06.03.51-5.58,22.84,68.26,10.04.67-.12.99.79.38,1.08-7.23,3.42-17.74,11.23-11.76,26.4.08.2-.03.43-.24.45-5.89.59-40.92,1.37-42.71,22.79-.05.55-1.77,13.21,14.67,21.53.39.2.32.79-.12.81-11.51.55-52.47-1.43-64.15,18.68-5.09,8.76-1.32,19.98,8.05,23.85,8.76,3.62,24.38,5.55,52.24.9,63.97-10.69,396.77-19.26,440.56-20.99,3.23-.13,6.45-.16,9.68-.11l275.87,4.51c2.33.11,4.66.21,6.99.32l255.97,19.03c1.79.13,3.55.36,5.32.67,10.26,1.78,50.76,7,51.35-21.28,0,0,3.04-21.25-57.39-26.47l-.05-.21c3.89-1.86,36.43-18.33,6.14-36.13-2.02-1.19-4.23-2.08-6.5-2.66l-17.93-4.54c-1.17-.3-1.54-1.77-.65-2.58h0c1.65-1.51,3.83-2.29,6.06-2.13,14.26,1.01,67.75,2.62,56.5-31.6-12.96-39.41-259.64-54.52-259.64-54.52,0,0-292.01-7.63-385.42,0,0,0-297.45,23.11-323.7,24.8Z"/>
</svg>